<svg width="140" height="46" viewBox="0 0 140 46" fill="none" xmlns="http://www.w3.org/2000/svg">
<path d="M32.2276 18.3851L14.5656 18.3771C12.0462 18.3771 10.0038 16.3204 10.0038 13.7835C10.0038 11.2465 12.0462 9.18986 14.5656 9.18986H38.9319C41.4513 9.18986 43.4937 7.13058 43.4937 4.5936C43.4937 2.05664 41.4487 0 38.9293 0H13.688C6.12717 0 0 6.16992 0 13.7835C0 21.397 6.12717 27.5669 13.688 27.5669L31.3501 27.5749C33.8695 27.5749 35.9118 29.6316 35.9118 32.1685C35.9118 34.7055 33.8695 36.7621 31.3501 36.7621H6.87561C6.85189 36.7621 6.83081 36.7595 6.80709 36.7595C4.2877 36.7595 2.24531 38.8161 2.24531 41.3531C2.24531 43.89 4.2877 45.9467 6.80709 45.9467V45.9546H32.2276C39.7884 45.9546 45.9156 39.7847 45.9156 32.1712C45.9156 24.5576 39.7884 18.3877 32.2276 18.3877" fill="#00AED5"/>
<path d="M140 41.3563C140 43.8932 137.958 45.9498 135.438 45.9498C132.919 45.9498 130.876 43.8932 130.876 41.3563C130.876 38.8193 132.919 36.7627 135.438 36.7627C137.958 36.7627 140 38.8193 140 41.3563Z" fill="#F03340"/>
<path d="M108.458 11.4961C108.458 10.2276 109.48 9.19792 110.74 9.19792H135.441C137.957 9.19265 139.997 7.13863 140 4.60166C140 2.0647 137.957 0.00805664 135.438 0.00805664H108.458C103.418 0.00805664 99.3335 4.12134 99.3335 9.19792V18.3851H108.46V11.4934L108.458 11.4961Z" fill="#F03340"/>
<path d="M140 25.2767C140 22.7397 137.957 20.6831 135.438 20.6831H108.458C103.418 20.6831 99.3335 24.7964 99.3335 29.873V45.9519H108.458V32.1711C108.458 30.9026 109.48 29.873 110.74 29.873H135.441C137.96 29.8703 140 27.8136 140 25.2793V25.2767Z" fill="#F03340"/>
<path d="M94.7722 13.7889C94.7722 6.17795 88.6423 0.00537109 81.0838 0.00537109H55.0257C55.0257 0.00537109 55.0099 0.00537109 55.002 0.00537109C52.4826 0.00537109 50.4403 2.06201 50.4403 4.59897C50.4403 4.78474 50.4535 4.96784 50.4745 5.1483V40.8091C50.4535 40.9896 50.4403 41.1727 50.4403 41.3584C50.4403 43.8954 52.4826 45.9521 55.002 45.9521H81.0838C88.6445 45.9521 94.7722 39.7822 94.7722 32.1686C94.7722 28.6391 93.452 25.4175 91.2827 22.9787C93.452 20.5399 94.7722 17.321 94.7722 13.7889ZM80.2092 36.7595H59.6007V27.575H80.2092C82.7284 27.575 84.7712 29.6316 84.7712 32.1686C84.7712 34.7056 82.7284 36.7622 80.2092 36.7622M80.2092 18.3851H59.6007V9.19791H80.2092C82.7284 9.19791 84.7712 11.2546 84.7712 13.7915C84.7712 16.3285 82.7284 18.3851 80.2092 18.3851Z" fill="#00AED5"/>
</svg>
