<svg width="112" height="27" viewBox="0 0 112 27" fill="none" xmlns="http://www.w3.org/2000/svg">
<g clip-path="url(#clip0_310_429)">
<path d="M0 21.6794V5.32063C0 2.31726 1.58715 0.719727 4.57101 0.719727H8.76109C11.7132 0.719727 13.3321 2.31726 13.3321 5.32063V8.64351C13.3321 8.96302 13.1416 9.15472 12.8242 9.15472H9.64986C9.30072 9.15472 9.14198 8.96302 9.14198 8.64351V6.21525C9.14198 5.38453 8.69758 4.93722 7.87227 4.93722H5.58677C4.72971 4.93722 4.31705 5.38453 4.31705 6.21525V20.7848C4.31705 21.6475 4.76146 22.0628 5.58677 22.0628H7.87227C8.69758 22.0628 9.14198 21.6475 9.14198 20.7848V16.5034H7.49133C7.14219 16.5034 6.98346 16.3117 6.98346 15.9922V12.7971C6.98346 12.4456 7.14219 12.2859 7.49133 12.2859H12.8242C13.1416 12.2859 13.3321 12.4456 13.3321 12.7971V21.6794C13.3321 24.6828 11.7132 26.2803 8.76109 26.2803H4.57101C1.58715 26.2803 0 24.6828 0 21.6794Z" fill="white"/>
<path d="M16.4915 21.6794V5.32063C16.4915 2.31726 18.0786 0.719727 21.0625 0.719727H24.6177C27.6015 0.719727 29.1887 2.31726 29.1887 5.32063V21.6794C29.1887 24.6828 27.6015 26.2803 24.6177 26.2803H21.0625C18.0786 26.2803 16.4915 24.6828 16.4915 21.6794ZM21.983 22.1587H23.8241C24.6494 22.1587 25.0938 21.7433 25.0938 20.8807V6.11938C25.0938 5.2887 24.6494 4.84137 23.8241 4.84137H21.983C21.1577 4.84137 20.7133 5.2887 20.7133 6.11938V20.8807C20.7133 21.7433 21.1577 22.1587 21.983 22.1587Z" fill="white"/>
<path d="M32.363 16.2477V13.3082C32.363 12.8928 32.5852 12.6692 32.9979 12.6692H38.0133C38.4259 12.6692 38.6481 12.8928 38.6481 13.3082V16.2477C38.6481 16.663 38.4259 16.8867 38.0133 16.8867H32.9979C32.5852 16.8867 32.363 16.663 32.363 16.2477Z" fill="white"/>
<path d="M41.8177 21.6794V5.32063C41.8177 2.31726 43.4049 0.719727 46.3886 0.719727H50.5788C53.5308 0.719727 55.1498 2.31726 55.1498 5.32063V8.64351C55.1498 8.96302 54.9592 9.15472 54.642 9.15472H51.4673C51.1186 9.15472 50.9596 8.96302 50.9596 8.64351V6.21525C50.9596 5.38453 50.5151 4.93722 49.6898 4.93722H47.4045C46.5476 4.93722 46.1347 5.38453 46.1347 6.21525V20.7848C46.1347 21.6475 46.5792 22.0628 47.4045 22.0628H49.6898C50.5151 22.0628 50.9596 21.6475 50.9596 20.7848V16.5034H49.309C48.9598 16.5034 48.8012 16.3117 48.8012 15.9922V12.7971C48.8012 12.4456 48.9598 12.2859 49.309 12.2859H54.642C54.9592 12.2859 55.1498 12.4456 55.1498 12.7971V21.6794C55.1498 24.6828 53.5308 26.2803 50.5788 26.2803H46.3886C43.4049 26.2803 41.8177 24.6828 41.8177 21.6794Z" fill="white"/>
<path d="M70.9748 1.23094V4.42601C70.9748 4.74552 70.8475 4.96917 70.4666 4.96917H62.5312V11.3593H68.5938C68.9113 11.3593 69.102 11.551 69.102 11.9025V15.0656C69.102 15.4171 68.9113 15.6088 68.5938 15.6088H62.5312V22.0628H70.4666C70.8475 22.0628 70.9748 22.2226 70.9748 22.574V25.7691C70.9748 26.0886 70.8475 26.2803 70.4666 26.2803H58.7854C58.4995 26.2803 58.3093 26.0886 58.3093 25.7691V1.23094C58.3093 0.911431 58.4995 0.719727 58.7854 0.719727H70.4666C70.8475 0.719727 70.9748 0.911431 70.9748 1.23094Z" fill="white"/>
<path d="M83.8946 0.719727H87.1958C87.5134 0.719727 87.704 0.911431 87.704 1.23094V25.7691C87.704 26.0886 87.5134 26.2803 87.1958 26.2803H84.0536C83.7677 26.2803 83.5775 26.1525 83.4822 25.865L78.6252 12.222H78.4667V25.7691C78.4667 26.0886 78.3081 26.2803 77.9589 26.2803H74.6577C74.3402 26.2803 74.1495 26.0886 74.1495 25.7691V1.23094C74.1495 0.911431 74.3402 0.719727 74.6577 0.719727H77.7999C78.0859 0.719727 78.2761 0.847528 78.3714 1.13508L83.1963 14.7142H83.3869V1.23094C83.3869 0.911431 83.5454 0.719727 83.8946 0.719727Z" fill="white"/>
<path d="M91.3969 0.719727H94.6981C95.0157 0.719727 95.2063 0.911431 95.2063 1.23094V25.7691C95.2063 26.0886 95.0157 26.2803 94.6981 26.2803H91.3969C91.0477 26.2803 90.8892 26.0886 90.8892 25.7691V1.23094C90.8892 0.911431 91.0477 0.719727 91.3969 0.719727Z" fill="white"/>
<path d="M111.056 1.23094V4.42601C111.056 4.74552 110.93 4.96917 110.548 4.96917H102.613V11.3593H108.676C108.993 11.3593 109.184 11.551 109.184 11.9025V15.0656C109.184 15.4171 108.993 15.6088 108.676 15.6088H102.613V22.0628H110.548C110.93 22.0628 111.056 22.2226 111.056 22.574V25.7691C111.056 26.0886 110.93 26.2803 110.548 26.2803H98.8671C98.5811 26.2803 98.391 26.0886 98.391 25.7691V1.23094C98.391 0.911431 98.5811 0.719727 98.8671 0.719727H110.548C110.93 0.719727 111.056 0.911431 111.056 1.23094Z" fill="white"/>
</g>
<defs>
<clipPath id="clip0_310_429">
<rect width="111.34" height="27" fill="white"/>
</clipPath>
</defs>
</svg>
